<svg xmlns="http://www.w3.org/2000/svg" viewBox="0 0 1500 1336.58"><defs><style>.cls-1{fill:#2b97a7;}.cls-2{fill:#f5f5f7;}.cls-3{fill:#d8461f;}.cls-4{fill:#cad4d5;}.cls-5{fill:#acb4b8;}.cls-6{fill:#e54e2a;}.cls-7{fill:#ae834c;}.cls-8{fill:#d4aa69;}.cls-9{fill:#eac485;}.cls-10{fill:#c69b57;}.cls-11{fill:#9e7745;}.cls-12{fill:#f3cc9f;}.cls-13{fill:#e9c192;}.cls-14{fill:#ea8c00;}.cls-15{fill:#f09b00;}</style></defs><g id="katman_2" data-name="katman 2"><g id="background"><path class="cls-1" d="M1341.17,1211.58A746.79,746.79,0,0,0,1500,750C1500,335.79,1164.21,0,750,0S0,335.79,0,750a746.79,746.79,0,0,0,158.83,461.58Z"/></g><g id="laptop"><path class="cls-2" d="M1336.48,1152.64c0,24.36-8.81,29.51-33.43,29.51H196.36c-24.61,0-29.71-5.15-29.71-29.51V427.14c0-24.37,5.1-29.52,29.71-29.52H1303.05c24.62,0,33.43,5.15,33.43,29.52Z"/><rect class="cls-3" x="217.61" y="453.77" width="1077.99" height="672.23"/><path class="cls-2" d="M1491.14,1314.16c-6.94-5.88-157.79-132-169.33-132H178.19c-11.54,0-162.39,126.13-169.33,132-11.29,9.55-12.09,22.2-.68,22.24,65.86.17,160.83.18,170,.18H1321.81c9.18,0,104.16,0,170-.18C1503.23,1336.36,1502.42,1323.71,1491.14,1314.16Z"/><path class="cls-4" d="M1489.72,1314.16c-6.94-5.88-157.79-132-169.33-132H178.19c-11.54,0-162.39,126.13-169.33,132-11.29,9.55-1.12,11.78,10.29,11.81,65.86.18,150.56,1.52,159.73,1.52H1319.7c9.17,0,93.88-1.34,159.73-1.52C1490.84,1325.94,1501,1323.71,1489.72,1314.16Z"/><path class="cls-5" d="M998.42,1312.27c-2.21-2-24.68-45.84-28.34-45.84H550.6c-3.66,0-19.79,43.79-22,45.84-3.58,3.31-.36,4.09,3.26,4.09,20.89.07,47.77.53,50.67.53H944.47c2.92,0,29.79-.46,50.68-.53C998.77,1316.36,1002,1315.58,998.42,1312.27Z"/><path class="cls-5" d="M1212.72,1254.81h56.77l-8.22-9.34h.15L1222,1201.74l-55.18-.36,6.45,10.66h-13.49l-5.19-10.92-58.41-.47,1,4.6h-12.63l-1.21-4.31-56.19-.25,1,4.56h-10l-.78-4.52-56.37,0-.21,4.57H949.15v-4.19l-54.48.22-.64,4H881.31l.53-3.8-54.42-.16-1.09,4h-9.46l1.28-4.08-57.7.12-1.07,4H748.11l1.18-3.46-57.53-.73-2,4.19H679.59l2.32-4.22-57.53-.73-2.3,5H611.21l2.95-5.36-57.53-.72-2.83,6.08h-10l2.95-5.36-57.54-.72-2.83,6.08H475.7l3-5.36-57.54-.72-7.81,13.21H402.85l7.43-13.5-57.54-.73-10.39,14.17-11.3.35,11.49-14.52-51.1.42L231,1255.49l65.85-.55L305,1245l8.34,0-6.56,10.51h59.55l6.82-10H381l-4.8,10h59.55l6.82-10h9.91l-6.39,10h83.09l6.51-10,9.58.27-4.6,9.75,349.8-.68-.15-9.34h11l.74,9.34h81.25l-1-9.34h10.32l2.08,9.34h65.86l-1.93-9.34h9l2.22,9.34h57.54l-2.82-9.34h11l3.4,9.34h61.58l-5.2-9.34h11.2Z"/><polygon class="cls-6" points="1295.61 1126 217.62 453.77 1295.61 453.77 1295.61 1126"/></g><g id="package"><polygon class="cls-7" points="1175 666.58 410 666.58 325 580.87 410 152.29 1090 66.58 1175 152.29 1175 666.58"/><polygon class="cls-8" points="1175 666.58 1090 580.87 1090 66.58 1175 152.29 1175 666.58"/><rect class="cls-9" x="325" y="66.58" width="765" height="514.29"/><polygon class="cls-10" points="1147.06 460.75 1158 437.72 1158 331.44 1147.94 292.25 1175 152.29 1143.22 273.88 1090 66.58 1148.65 332.29 1148.65 435.15 1090 580.87 1140.35 474.89 1175 666.58 1147.06 460.75"/><rect class="cls-8" x="682.69" y="66.58" width="67.31" height="514.29"/><polygon class="cls-11" points="832.45 666.58 765.13 666.58 681.84 580.87 749.15 580.87 832.45 666.58"/><rect class="cls-10" x="682.69" y="280.87" width="67.31" height="85.71"/><rect class="cls-8" x="325" y="289.78" width="765" height="67.88"/><polygon class="cls-7" points="1174.87 441.73 1174.98 373.85 1090.13 289.71 1090.01 357.59 1174.87 441.73"/><rect class="cls-8" x="814.6" y="415.55" width="195.5" height="10.51"/><rect class="cls-8" x="814.6" y="436.12" width="195.5" height="10.51"/><rect class="cls-8" x="814.6" y="457.55" width="97.75" height="10.51"/><rect class="cls-8" x="814.6" y="490.3" width="4.25" height="33.71"/><rect class="cls-8" x="823.08" y="490.3" width="5.71" height="33.71"/><rect class="cls-8" x="836.1" y="490.3" width="3.74" height="33.71"/><rect class="cls-8" x="842.89" y="490.3" width="3.74" height="33.71"/><rect class="cls-8" x="853.68" y="490.3" width="5.71" height="33.71"/><rect class="cls-8" x="867.28" y="490.3" width="5.71" height="33.71"/><rect class="cls-8" x="875.2" y="490.3" width="3.74" height="33.71"/><rect class="cls-8" x="882" y="490.3" width="3.73" height="33.71"/><rect class="cls-8" x="892.8" y="490.3" width="4.25" height="33.71"/><rect class="cls-8" x="901.28" y="490.3" width="5.71" height="33.71"/><rect class="cls-8" x="914.3" y="490.3" width="3.74" height="33.71"/><rect class="cls-8" x="921.09" y="490.3" width="3.74" height="33.71"/><rect class="cls-8" x="931.9" y="490.3" width="4.25" height="33.71"/><rect class="cls-8" x="939.53" y="490.3" width="5.71" height="33.71"/></g><g id="hand"><path class="cls-12" d="M1075.37,637.49c-56.1-7.1-121.5,69-121.5,69L832,754.31,670,712.08l108.65-11.86c50.77-13.23,74.12-28.63,67.24-55.81-5.27-20.82-42.57-15.17-83.65-9.59,0,0-111.34-2-210.33,2.67-21.23,1-41.41,1.65-68,21-22.29,16.21-41.07,50.3-43.57,53l-98.82,137.1L514,971.58l64.52-109.07c4.91.59,260.9-1.51,260.9-1.51l149.48-89.39L1110.37,672S1114.87,642.49,1075.37,637.49Z"/><path class="cls-13" d="M817.94,636.64h0c-17.3,1.66-30.44,12.38-29.33,23.94.47,4.88,3.39,9.12,7.92,12.28-8.79-2.54-14.93-7.76-15.56-14.29-1-10.36,12.24-20.1,29.55-21.75A51.6,51.6,0,0,1,817.94,636.64Z"/><polygon class="cls-14" points="342.74 778.87 217.62 948.48 217.62 1126 432.65 1126 566.79 944.17 342.74 778.87"/><polygon class="cls-15" points="425.25 839.75 342.74 778.87 217.62 948.48 217.62 1125.64 425.25 839.75"/><path class="cls-13" d="M1093.41,661.93h0c-20.59,13.21-31.36,21.83-32.62,32-.53,4.29,1.3,7.36,4.79,9.05-7.49,0-11,0-11.37-7-.4-8.44,10.22-21.3,28.45-29.36C1085,665.61,1091.25,662.45,1093.41,661.93Z"/></g></g></svg>